<svg width="24" height="24" viewBox="0 0 24 24" fill="none" xmlns="http://www.w3.org/2000/svg">
<path d="M12.3308 4.61684C14.7361 4.61684 15.0149 4.6248 15.9627 4.67259C16.8388 4.71241 17.3167 4.85578 17.6353 4.98321C18.0574 5.14251 18.3521 5.34163 18.6707 5.65225C18.9893 5.97084 19.1804 6.26553 19.3397 6.68766C19.4592 7.00625 19.6105 7.48413 19.6504 8.36025C19.6902 9.30805 19.7061 9.59479 19.7061 11.9922C19.7061 14.3895 19.6982 14.6763 19.6504 15.6241C19.6105 16.5002 19.4672 16.9781 19.3397 17.2967C19.1804 17.7188 18.9813 18.0135 18.6707 18.3321C18.3601 18.6507 18.0574 18.8418 17.6353 19.0011C17.3167 19.1206 16.8388 19.2719 15.9627 19.3117C15.0149 19.3516 14.7282 19.3675 12.3308 19.3675C9.93341 19.3675 9.64668 19.3595 8.69888 19.3117C7.82276 19.2719 7.34488 19.1286 7.02629 19.0011C6.60416 18.8418 6.30946 18.6427 5.99087 18.3321C5.67229 18.0135 5.48113 17.7188 5.32184 17.2967C5.20237 16.9781 5.05104 16.5002 5.01121 15.6241C4.97139 14.6763 4.95546 14.3895 4.95546 11.9922C4.95546 9.59479 4.96343 9.30805 5.01121 8.36025C5.05104 7.48413 5.1944 7.00625 5.32184 6.68766C5.48113 6.26553 5.68025 5.97084 5.99087 5.65225C6.30946 5.33366 6.60416 5.14251 7.02629 4.98321C7.34488 4.86374 7.82276 4.71241 8.69888 4.67259C9.64668 4.63277 9.93341 4.61684 12.3308 4.61684ZM12.3308 3C9.88562 3 9.58296 3.00796 8.61923 3.05575C7.66347 3.09558 7.01036 3.25487 6.4369 3.47788C5.84751 3.70886 5.34573 4.01152 4.84396 4.5133C4.34218 5.01508 4.03952 5.51685 3.80854 6.10624C3.58553 6.6797 3.4342 7.33281 3.39438 8.28857C3.34659 9.24434 3.33862 9.55496 3.33862 12.0001C3.33862 14.4453 3.34659 14.748 3.39438 15.7117C3.4342 16.6675 3.59349 17.3206 3.80854 17.894C4.03952 18.4834 4.34218 18.9852 4.84396 19.487C5.34573 19.9887 5.84751 20.2914 6.4369 20.5224C7.01036 20.7454 7.66347 20.8967 8.61923 20.9445C9.575 20.9843 9.88562 21.0003 12.3308 21.0003C14.776 21.0003 15.0786 20.9923 16.0423 20.9445C16.9981 20.9047 17.6512 20.7454 18.2247 20.5224C18.8141 20.2914 19.3158 19.9887 19.8176 19.487C20.3194 18.9852 20.6221 18.4834 20.853 17.894C21.0761 17.3206 21.2274 16.6675 21.2672 15.7117C21.307 14.7559 21.323 14.4453 21.323 12.0001C21.323 9.55496 21.315 9.2523 21.2672 8.28857C21.2274 7.33281 21.0681 6.6797 20.853 6.10624C20.6221 5.51685 20.3194 5.01508 19.8176 4.5133C19.3158 4.01152 18.8141 3.70886 18.2247 3.47788C17.6512 3.25487 16.9981 3.10354 16.0423 3.05575C15.0866 3.01593 14.776 3 12.3308 3Z" fill="white"/>
<path d="M12.3307 7.37268C9.78201 7.37268 7.71118 9.44351 7.71118 11.9922C7.71118 14.5409 9.78201 16.6118 12.3307 16.6118C14.8794 16.6118 16.9503 14.5409 16.9503 11.9922C16.9503 9.44351 14.8794 7.37268 12.3307 7.37268ZM12.3307 14.9869C10.6741 14.9869 9.33598 13.6409 9.33598 11.9922C9.33598 10.3435 10.682 8.99748 12.3307 8.99748C13.9794 8.99748 15.3255 10.3435 15.3255 11.9922C15.3255 13.6409 13.9794 14.9869 12.3307 14.9869Z" fill="white"/>
<path d="M18.2086 7.1894C18.2086 7.78676 17.7228 8.27261 17.1254 8.27261C16.5281 8.27261 16.0422 7.78676 16.0422 7.1894C16.0422 6.59205 16.5281 6.1062 17.1254 6.1062C17.7228 6.1062 18.2086 6.59205 18.2086 7.1894Z" fill="white"/>
</svg>
