<svg width="24" height="24" viewBox="0 0 24 24" fill="none" xmlns="http://www.w3.org/2000/svg">
<path d="M3.35392 17.4147C4.91557 18.4191 6.77541 18.9999 8.76866 18.9999C15.3291 18.9999 19.0331 13.4596 18.8134 8.48427C19.504 7.98988 20.1004 7.36208 20.5791 6.65581C19.9434 6.93832 19.2607 7.12666 18.5466 7.21299C19.2764 6.77353 19.8336 6.08295 20.1004 5.25897C19.4176 5.66703 18.6643 5.95739 17.856 6.11434C17.2125 5.42377 16.2944 5 15.2742 5C12.9906 5 11.3191 7.12666 11.8292 9.33964C8.89423 9.19054 6.28886 7.78585 4.54673 5.6435C3.62073 7.22868 4.06803 9.30825 5.63752 10.3598C5.05681 10.3441 4.51534 10.1793 4.03665 9.92035C3.99741 11.5605 5.17453 13.0907 6.86958 13.4282C6.37519 13.5616 5.82587 13.593 5.27655 13.4909C5.72385 14.8956 7.03437 15.9158 8.58032 15.9472C7.09715 17.1086 5.22161 17.6344 3.34607 17.4068L3.35392 17.4147Z" fill="white"/>
</svg>
